<?xml version="1.0" encoding="utf-8"?>
<!-- Generator: Adobe Illustrator 21.0.2, SVG Export Plug-In . SVG Version: 6.00 Build 0)  -->
<svg xmlns="http://www.w3.org/2000/svg" xmlns:xlink="http://www.w3.org/1999/xlink" version="1.1" id="Layer_1" x="0px" y="0px" viewBox="0 0 48 48" enable-background="new 0 0 48 48" xml:space="preserve" width="48px" height="48px">
<path fill="#F44336" d="M36,8.4l3.5,3.5L12,39.6L8.4,36L36,8.4z"/>
<path fill="#F44336" d="M35.5,32L32,35.5L8.4,12L12,8.4L35.5,32z"/>
<path fill="#4CAF50" d="M40.5,33H35v5h5.5c1.4,0,2.5,1.1,2.5,2.5S41.9,43,40.5,43H39v5h1.5c4.1,0,7.5-3.4,7.5-7.5S44.6,33,40.5,33z"/>
<path fill="#4CAF50" d="M36,29l-8,7l8,6V29z"/>
<polygon fill="#FFCDD2" points="29,32.5 30.4,33.9 34.2,30.6 32.7,29.2 "/>
</svg>
